<svg width="28" height="29" viewBox="0 0 28 29" fill="none" xmlns="http://www.w3.org/2000/svg">
<path d="M14 28.0991C12.14 28.0991 10.33 27.739 8.62997 27.019C6.98997 26.329 5.50997 25.3291 4.24997 24.0691C2.97997 22.7991 1.98997 21.3291 1.29997 19.6891C0.579973 17.9891 0.219971 16.1891 0.219971 14.3191C0.219971 12.4491 0.579973 10.6491 1.29997 8.94907C1.98997 7.30907 2.98997 5.82906 4.24997 4.56906C5.50997 3.30906 6.98997 2.30905 8.62997 1.61905C10.33 0.899049 12.13 0.539062 14 0.539062C15.87 0.539062 17.67 0.899049 19.37 1.61905C21.01 2.30905 22.49 3.30906 23.75 4.56906C25.02 5.83906 26.01 7.30907 26.7 8.94907C27.42 10.6491 27.78 12.4491 27.78 14.3191C27.78 16.1891 27.42 17.9891 26.7 19.6891C26.01 21.3291 25.01 22.8091 23.75 24.0691C22.48 25.3391 21.01 26.329 19.37 27.019C17.67 27.739 15.87 28.0991 14 28.0991ZM14 1.81906C10.66 1.81906 7.51997 3.11907 5.15997 5.47906C2.79997 7.83906 1.49997 10.9791 1.49997 14.3191C1.49997 17.6591 2.79997 20.7991 5.15997 23.1591C7.51997 25.5191 10.66 26.8191 14 26.8191C17.34 26.8191 20.48 25.5191 22.84 23.1591C25.2 20.7991 26.5 17.6591 26.5 14.3191C26.5 10.9791 25.2 7.83906 22.84 5.47906C20.48 3.11907 17.34 1.81906 14 1.81906Z" fill="#09080D"/>
<path d="M18.11 9.26927L12.34 16.1793L9.82999 13.5793C9.28999 13.0193 8.41 13.0093 7.85 13.5493C7.29 14.0893 7.28 14.9693 7.82 15.5293L10.54 18.3493L11.72 19.5693C12.14 19.9993 12.83 19.9693 13.21 19.5193L14.3 18.2193L20.26 11.0793C20.75 10.4893 20.68 9.60927 20.08 9.10927C19.49 8.61927 18.61 8.68929 18.11 9.28929V9.26927Z" fill="#09080D"/>
</svg>
