<svg width="28" height="29" viewBox="0 0 28 29" fill="none" xmlns="http://www.w3.org/2000/svg">
<path d="M14 28.0991C12.14 28.0991 10.33 27.739 8.62997 27.019C6.98997 26.329 5.50997 25.3291 4.24997 24.0691C2.97997 22.7991 1.98997 21.3291 1.29997 19.6891C0.579973 17.9891 0.219971 16.1891 0.219971 14.3191C0.219971 12.4491 0.579973 10.6491 1.29997 8.94907C1.98997 7.30907 2.98997 5.82906 4.24997 4.56906C5.50997 3.30906 6.98997 2.30905 8.62997 1.61905C10.33 0.899049 12.13 0.539062 14 0.539062C15.87 0.539062 17.67 0.899049 19.37 1.61905C21.01 2.30905 22.49 3.30906 23.75 4.56906C25.02 5.83906 26.01 7.30907 26.7 8.94907C27.42 10.6491 27.78 12.4491 27.78 14.3191C27.78 16.1891 27.42 17.9891 26.7 19.6891C26.01 21.3291 25.01 22.8091 23.75 24.0691C22.48 25.3391 21.01 26.329 19.37 27.019C17.67 27.739 15.87 28.0991 14 28.0991ZM14 1.81906C10.66 1.81906 7.51997 3.11907 5.15997 5.47906C2.79997 7.83906 1.49997 10.9791 1.49997 14.3191C1.49997 17.6591 2.79997 20.7991 5.15997 23.1591C7.51997 25.5191 10.66 26.8191 14 26.8191C17.34 26.8191 20.48 25.5191 22.84 23.1591C25.2 20.7991 26.5 17.6591 26.5 14.3191C26.5 10.9791 25.2 7.83906 22.84 5.47906C20.48 3.11907 17.34 1.81906 14 1.81906Z" fill="#09080D"/>
<path d="M15.89 14.3183L19.94 10.2683C20.46 9.74827 20.46 8.89828 19.94 8.37828C19.42 7.85828 18.57 7.85828 18.05 8.37828L14 12.4283L9.94998 8.37828C9.42998 7.85828 8.57998 7.85828 8.05998 8.37828C7.53998 8.89828 7.53998 9.74827 8.05998 10.2683L12.11 14.3183L8.05998 18.3683C7.53998 18.8883 7.53998 19.7383 8.05998 20.2583C8.31998 20.5183 8.65999 20.6483 8.99999 20.6483C9.33999 20.6483 9.67999 20.5183 9.93999 20.2583L13.99 16.2083L18.04 20.2583C18.3 20.5183 18.64 20.6483 18.98 20.6483C19.32 20.6483 19.66 20.5183 19.92 20.2583C20.44 19.7383 20.44 18.8883 19.92 18.3683L15.87 14.3183H15.89Z" fill="#09080D"/>
</svg>
