<svg width="18" height="20" viewBox="0 0 18 20" fill="none" xmlns="http://www.w3.org/2000/svg">
<path d="M13.4399 2.99877C14.1899 3.09877 14.8699 2.54877 14.9699 1.77877C15.0599 1.01877 14.5299 0.318773 13.7799 0.218773C13.0299 0.118773 12.3499 0.668771 12.2499 1.43877C12.1599 2.19877 12.6899 2.89877 13.4399 2.99877Z" fill="#09080D"/>
<path d="M17.3201 4.41922L17.3 4.23922L17.2401 4.04922L17.1301 3.90922L17 3.76922L16.87 3.65922L16.7101 3.57922L16.55 3.50922L16.36 3.46922L16.19 3.44922L16.03 3.46922L15.87 3.51922L15.72 3.61922L15.59 3.72922L14.3501 5.77922L12.3201 6.01922L11.04 8.29922L15.75 7.93922L17.19 5.03922L17.2701 4.83922L17.3201 4.62922V4.42922V4.41922Z" fill="#09080D"/>
<path d="M12.5499 12.8589L12.4599 12.5889L12.3398 12.3089L12.1798 12.0289L8.03984 8.37891L2.24985 18.3789L2.14984 18.5489L2.09985 18.7289V18.8989L2.14984 19.0589L2.22984 19.2089L2.34985 19.3489L2.51985 19.4789L2.68985 19.5889L2.88985 19.6889L3.08984 19.7489L3.28984 19.7889H3.48985L3.68985 19.7589L3.86984 19.6889L4.02985 19.5889L4.14984 19.4489L6.09985 16.2889L10.8799 15.5589L11.1398 15.4789L11.3898 15.3889L11.6098 15.2589L11.8199 15.0989L12.0098 14.8989L12.1798 14.6989L12.3298 14.4689L12.4398 14.2389L12.5298 13.9789L12.5798 13.7089L12.5999 13.4289V13.1589L12.5499 12.8889V12.8589ZM7.29985 14.1789L7.40985 13.9789L8.60985 12.0289L8.71985 11.8189L10.5499 13.5889L7.29985 14.1789Z" fill="#09080D"/>
<path d="M2.14992 7.92969L0.669922 10.5797L3.02992 10.0097L2.14992 7.92969Z" fill="#09080D"/>
<path d="M6.02995 10.3906L3.94995 10.5806L4.59996 12.8606L6.02995 10.3906Z" fill="#09080D"/>
<path d="M3.78993 10.5984L3.30994 10.6384L3.09995 10.1484L0.679932 10.7384L4.47993 12.9984L3.78993 10.5984Z" fill="#09080D"/>
<path d="M6.04002 10.2286L5.41003 9.81861L7.17003 6.53861L10.03 5.94861L10.37 5.81861C10.74 5.61861 11.01 5.39861 11.06 4.94861C11.15 4.19861 10.68 3.58861 9.96004 3.48861C9.79004 3.46861 5.84003 4.35861 5.84003 4.35861L3.43002 8.53861L2.28003 7.83861L3.40002 10.4886L6.05003 10.2386L6.04002 10.2286Z" fill="#09080D"/>
</svg>
