<svg width="35" height="36" viewBox="0 0 35 36" fill="none" xmlns="http://www.w3.org/2000/svg">
<path fill-rule="evenodd" clip-rule="evenodd" d="M2.49 28.7517C2.49 28.0717 1.93 27.5117 1.25 27.5117H1.24C0.56 27.5117 0 28.0717 0 28.7517C0 32.2017 2.81 35.0117 6.24 35.0117H6.25C6.93 35.0117 7.49 34.4517 7.49 33.7717V33.7417C7.49 33.0617 6.93 32.5017 6.25 32.5017H6.24C4.18 32.5017 2.49 30.8117 2.49 28.7517Z" fill="#2E3136"/>
<path fill-rule="evenodd" clip-rule="evenodd" d="M32.49 28.7695C32.49 30.8195 30.81 32.4995 28.76 32.4995H28.75C28.07 32.4995 27.51 33.0595 27.51 33.7395V33.7695C27.51 34.4495 28.07 35.0095 28.75 35.0095H28.76C32.19 35.0095 35 32.1995 35 28.7695C35 28.0695 34.44 27.5195 33.76 27.5195H33.73C33.05 27.5195 32.49 28.0795 32.49 28.7595V28.7695Z" fill="#2E3136"/>
<path fill-rule="evenodd" clip-rule="evenodd" d="M28.76 0.01H28.75C28.07 0.01 27.51 0.57 27.51 1.25C27.51 1.95 28.07 2.5 28.75 2.5H28.76C30.81 2.5 32.49 4.18 32.49 6.23V6.26C32.49 6.94 33.05 7.5 33.73 7.5H33.76C34.44 7.5 35 6.94 35 6.26C35 2.81 32.19 0 28.76 0V0.01Z" fill="#2E3136"/>
<path fill-rule="evenodd" clip-rule="evenodd" d="M2.49 6.25172C2.49 4.19172 4.18 2.50172 6.24 2.50172H6.25C6.93 2.50172 7.49 1.94172 7.49 1.26172C7.49 0.561719 6.93 0.0117188 6.25 0.0117188H6.24C2.81 0.0117187 0 2.82172 0 6.25172C0 6.95172 0.56 7.50172 1.24 7.50172H1.25C1.93 7.50172 2.49 6.94172 2.49 6.26172V6.25172Z" fill="#2E3136"/>
<path d="M24.79 21.2013C23.97 20.3512 23.04 19.6612 22.03 19.1512C24 17.7412 25.28 15.4313 25.28 12.8213C25.28 8.53125 21.79 5.03125 17.49 5.03125C13.19 5.03125 9.69995 8.52125 9.69995 12.8213C9.69995 15.4213 10.98 17.7312 12.95 19.1512C11.94 19.6612 11.01 20.3512 10.19 21.2013C8.25995 23.2113 7.19995 25.8713 7.19995 28.7113C7.19995 29.4113 7.76995 29.9812 8.46995 29.9812C9.16995 29.9812 9.73995 29.4113 9.73995 28.7113C9.73995 24.2413 13.21 20.6112 17.48 20.6112C21.75 20.6112 25.22 24.2413 25.22 28.7113C25.22 29.4113 25.79 29.9812 26.49 29.9812C27.19 29.9812 27.76 29.4113 27.76 28.7113C27.76 25.8813 26.7 23.2113 24.77 21.2013H24.79ZM12.26 12.8213C12.26 9.93125 14.61 7.58125 17.5 7.58125C20.39 7.58125 22.74 9.93125 22.74 12.8213C22.74 15.7113 20.39 18.0612 17.5 18.0612C14.61 18.0612 12.26 15.7113 12.26 12.8213Z" fill="#2E3136"/>
</svg>
